# This file uses centimeters as units for non-parametric coordinates.

v -0.294411 4.467738 0.486779
v -0.224854 3.058075 0.376771
v 0.256600 4.467738 0.486779
v 0.186844 3.058075 0.376771
v 0.256600 4.467738 -0.164647
v 0.186844 3.058075 -0.158413
v -0.294411 4.467738 -0.164647
v -0.224854 3.058075 -0.158413
v 0.412991 3.058075 0.102738
v 0.466602 4.467738 0.102738
v -0.497065 4.467738 0.102738
v -0.436367 3.058075 0.102738
v -0.009130 3.058075 -0.272802
v -0.018905 4.467738 -0.253898
v -0.015232 4.467738 0.102738
v -0.018905 4.467738 0.576030
v -0.009130 3.058075 0.491160
v -0.001813 3.058075 0.102738
v 0.340600 3.523258 -0.327664
v -0.018975 3.529529 -0.364405
v -0.365654 3.523258 -0.327664
v -0.542411 3.529529 0.100369
v -0.365654 3.385685 0.478272
v -0.018975 3.379413 0.515013
v 0.328573 3.385685 0.478272
v 0.524653 3.529529 0.100369
v 0.376145 4.003033 -0.323838
v -0.028760 4.009908 -0.388622
v -0.394327 4.003033 -0.323838
v -0.599812 4.009908 0.099435
v -0.394327 3.897984 0.666028
v -0.028760 3.891109 0.730812
v 0.341359 3.897984 0.666028
v 0.581630 4.009908 0.099435
vt 0.375000 0.000000
vt 0.625000 0.000000
vt 0.375000 0.250000
vt 0.625000 0.250000
vt 0.375000 0.500000
vt 0.625000 0.500000
vt 0.375000 0.750000
vt 0.625000 0.750000
vt 0.375000 1.000000
vt 0.625000 1.000000
vt 0.875000 0.000000
vt 0.875000 0.250000
vt 0.125000 0.000000
vt 0.125000 0.250000
vt 0.625000 0.379897
vt 0.754897 0.250000
vt 0.245103 0.250000
vt 0.375000 0.379897
vt 0.245103 0.000000
vt 0.375000 0.870103
vt 0.625000 0.870103
vt 0.754897 0.000000
vt 0.625000 0.625000
vt 0.875000 0.125000
vt 0.125000 0.125000
vt 0.375000 0.625000
vt 0.245103 0.125000
vt 0.375000 0.125000
vt 0.625000 0.125000
vt 0.754897 0.125000
vt 0.541389 0.500000
vt 0.541389 0.625000
vt 0.541389 0.750000
vt 0.541389 0.870103
vt 0.541389 0.000000
vt 0.541389 1.000000
vt 0.541389 0.125000
vt 0.541389 0.250000
vt 0.541389 0.379897
vt 0.456195 0.500000
vt 0.456195 0.625000
vt 0.456195 0.750000
vt 0.456195 0.870103
vt 0.456195 0.000000
vt 0.456195 1.000000
vt 0.456195 0.125000
vt 0.456195 0.250000
vt 0.456195 0.379897
vn 0.004184 0.296383 0.955060
vn -0.003995 -0.041126 0.999146
vn 0.185427 -0.065888 0.980447
vn 0.219485 0.286115 0.932719
vn 0.865201 0.243288 0.438450
vn 0.906117 0.054401 0.419515
vn 0.995756 0.081285 0.043162
vn 0.952851 0.298709 0.053365
vn 0.212298 0.319467 -0.923510
vn 0.169062 0.126605 -0.977440
vn -0.004458 0.143178 -0.989687
vn 0.005127 0.327595 -0.944804
vn -0.958418 0.283446 0.033062
vn -0.996906 0.075770 0.020932
vn -0.923919 0.049348 0.379393
vn -0.880566 0.243304 0.406703
vn 0.000000 -1.000000 -0.000000
vn 0.000000 -1.000000 -0.000000
vn 0.000000 -1.000000 0.000000
vn 0.000000 -1.000000 0.000000
vn 0.000000 1.000000 0.000000
vn 0.000000 1.000000 0.000000
vn 0.000000 1.000000 0.000000
vn 0.000000 1.000000 0.000000
vn 0.886172 0.077036 -0.456908
vn 0.817462 0.294993 -0.494707
vn 0.000000 1.000000 -0.000000
vn 0.000000 1.000000 -0.000000
vn -0.828106 0.268586 -0.492038
vn -0.890539 0.066180 -0.450068
vn 0.000000 -1.000000 0.000000
vn 0.000000 -1.000000 0.000000
vn -0.180990 0.129933 -0.974864
vn -0.224590 0.319965 -0.920425
vn 0.000000 1.000000 0.000000
vn 0.000000 1.000000 0.000000
vn 0.000000 1.000000 0.000000
vn -0.220464 0.292261 0.930580
vn -0.186839 -0.064627 0.980263
vn 0.000000 -1.000000 -0.000000
vn 0.000000 -1.000000 -0.000000
vn 0.000000 -1.000000 0.000000
vn 0.171107 -0.114369 -0.978592
vn 0.247707 -0.295063 -0.922810
vn 0.006297 -0.305142 -0.952286
vn -0.000817 -0.147239 -0.989101
vn -0.179669 -0.124409 -0.975829
vn -0.244763 -0.296463 -0.923147
vn -0.979639 -0.199275 -0.024431
vn -0.880877 -0.182584 -0.436715
vn -0.831108 -0.304318 -0.465457
vn -0.935921 -0.345430 -0.068781
vn -0.903079 -0.208859 0.375268
vn -0.844442 -0.314642 0.433497
vn -0.001365 -0.330857 0.943680
vn -0.163902 -0.340484 0.925855
vn -0.254423 -0.240026 0.936833
vn 0.009612 -0.245424 0.969368
vn 0.164932 -0.336290 0.927203
vn 0.262948 -0.234232 0.935945
vn 0.978841 -0.204586 -0.003812
vn 0.885194 -0.206341 0.416958
vn 0.825956 -0.319536 0.464427
vn 0.929895 -0.362244 -0.063838
vn 0.871731 -0.195755 -0.449182
vn 0.815541 -0.319512 -0.482499
s 1
f 16/28/1 32/46/2 33/47/3 3/3/4
s 2
f 3/3/5 33/47/6 34/48/7 10/18/8
s 3
f 5/5/9 27/40/10 28/41/11 14/26/12
s 4
f 11/20/13 30/43/14 31/45/15 1/9/16
s 5
f 17/29/17 18/30/18 9/16/19 4/4/20
s 6
f 15/27/21 16/28/22 3/3/23 10/17/24
s 2
f 10/18/8 34/48/7 27/40/25 5/5/26
s 6
f 14/25/27 15/27/21 10/17/24 5/14/28
s 4
f 7/7/29 29/42/30 30/43/14 11/20/13
s 5
f 9/16/19 18/30/18 13/24/31 6/12/32
s 3
f 14/26/12 28/41/11 29/42/33 7/7/34
s 6
f 7/13/35 11/19/36 15/27/21 14/25/27
f 11/19/36 1/1/37 16/28/22 15/27/21
s 1
f 1/1/38 31/44/39 32/46/2 16/28/1
s 5
f 2/2/40 12/22/41 18/30/18 17/29/17
f 13/24/31 18/30/18 12/22/41 8/11/42
s 3
f 19/31/43 6/6/44 13/23/45 20/32/46
f 21/33/47 20/32/46 13/23/45 8/8/48
s 4
f 22/34/49 21/33/50 8/8/51 12/21/52
f 23/36/53 22/34/49 12/21/52 2/10/54
s 1
f 24/37/55 23/35/56 2/2/57 17/29/58
f 25/38/59 24/37/55 17/29/58 4/4/60
s 2
f 26/39/61 25/38/62 4/4/63 9/15/64
f 19/31/65 26/39/61 9/15/64 6/6/66
s 3
f 27/40/10 19/31/43 20/32/46 28/41/11
f 29/42/33 28/41/11 20/32/46 21/33/47
s 4
f 30/43/14 29/42/30 21/33/50 22/34/49
f 31/45/15 30/43/14 22/34/49 23/36/53
s 1
f 32/46/2 31/44/39 23/35/56 24/37/55
f 33/47/3 32/46/2 24/37/55 25/38/59
s 2
f 34/48/7 33/47/6 25/38/62 26/39/61
f 27/40/25 34/48/7 26/39/61 19/31/65
