# This file uses centimeters as units for non-parametric coordinates.

v -0.724590 0.172183 0.695325
v 0.724590 0.172183 0.695325
v -0.864154 2.798454 0.586022
v 0.864154 2.798454 0.586022
v -0.833200 2.874908 -0.405095
v 0.833200 2.874908 -0.405095
v -0.724590 0.172183 -0.695276
v 0.724590 0.172183 -0.695276
v 0.917814 1.994191 -0.809251
v -0.917814 1.994191 -0.809251
v -0.917814 2.047204 0.659691
v 0.917814 2.047204 0.659691
v 0.661595 1.211977 -0.555429
v -0.684801 1.211977 -0.555429
v -0.724590 1.067757 0.651032
v 0.661595 1.067757 0.651032
v 1.101824 3.052322 0.115584
v -1.101824 3.052322 0.115584
v -1.111575 2.127326 -0.026115
v -0.837770 1.067757 -0.003765
v -0.877559 0.172183 0.012358
v 0.877559 0.172183 0.012358
v 0.814564 1.067757 -0.003765
v 1.111575 2.127326 -0.026115
v -0.007393 1.994191 -0.943515
v -0.007328 2.983852 -0.512822
v -0.008875 3.052322 0.124766
v -0.007328 2.949617 0.708038
v -0.007393 2.047204 0.787832
v -0.005836 1.067757 0.785296
v -0.005836 0.172183 0.827548
v -0.007068 0.172183 0.018714
v -0.005836 0.172183 -0.819333
v -0.005836 1.211977 -0.687652
vt 0.375000 0.000000
vt 0.625000 0.000000
vt 0.375000 0.250000
vt 0.625000 0.250000
vt 0.375000 0.500000
vt 0.625000 0.500000
vt 0.375000 0.750000
vt 0.625000 0.750000
vt 0.375000 1.000000
vt 0.625000 1.000000
vt 0.875000 0.000000
vt 0.875000 0.250000
vt 0.125000 0.000000
vt 0.125000 0.250000
vt 0.625000 0.609239
vt 0.875000 0.140761
vt 0.125000 0.140761
vt 0.375000 0.609239
vt 0.375000 0.140761
vt 0.625000 0.140761
vt 0.625000 0.675791
vt 0.875000 0.074209
vt 0.125000 0.074209
vt 0.375000 0.675791
vt 0.375000 0.074209
vt 0.625000 0.074209
vt 0.625000 0.372783
vt 0.747783 0.250000
vt 0.252217 0.250000
vt 0.375000 0.372783
vt 0.252217 0.140761
vt 0.252217 0.074209
vt 0.252217 0.000000
vt 0.375000 0.877217
vt 0.625000 0.877217
vt 0.747783 0.000000
vt 0.747783 0.074209
vt 0.747783 0.140761
vt 0.498993 0.609239
vt 0.498993 0.500000
vt 0.498993 0.372783
vt 0.498993 0.250000
vt 0.498993 0.140761
vt 0.498993 0.074209
vt 0.498993 0.000000
vt 0.498993 1.000000
vt 0.498993 0.877217
vt 0.498993 0.750000
vt 0.498993 0.675791
vn -0.000137 0.034013 0.999421
vn 0.153347 0.040387 0.987347
vn 0.145190 0.096090 0.984727
vn 0.000078 0.097164 0.995268
vn 0.000239 0.940534 0.339698
vn 0.093784 0.936490 0.337922
vn 0.082677 0.995087 0.054459
vn -0.000131 0.998429 0.056027
vn -0.000005 0.413303 -0.910594
vn 0.148627 0.408661 -0.900503
vn 0.161815 0.149715 -0.975398
vn -0.000069 0.102606 -0.994722
vn 0.000000 -1.000000 -0.000000
vn 0.000000 -1.000000 -0.000000
vn 0.000000 -1.000000 0.000000
vn 0.000000 -1.000000 0.000000
vn 0.948224 -0.154725 0.277364
vn 0.994046 -0.099530 -0.044347
vn 0.995611 0.090793 0.022714
vn 0.934700 0.020958 0.354820
vn -0.995244 -0.082749 -0.051406
vn -0.955882 -0.129724 0.263556
vn -0.934700 0.020958 0.354820
vn -0.995611 0.090794 0.022714
vn 0.000191 -0.093290 -0.995639
vn 0.171673 -0.107150 -0.979310
vn -0.993504 -0.112580 -0.016617
vn -0.974229 -0.100289 0.202038
vn 0.000178 0.009674 0.999953
vn 0.172606 0.006039 0.984972
vn 0.968734 -0.096885 0.228401
vn 0.993609 -0.112871 -0.000826
vn 0.178738 0.132706 -0.974906
vn 0.000034 0.133883 -0.990997
vn -0.998951 0.042441 -0.017224
vn -0.980384 0.028358 0.195048
vn 0.000014 0.051555 0.998670
vn 0.186995 0.053970 0.980877
vn 0.972023 0.075871 0.222296
vn 0.996890 0.078796 -0.000924
vn 0.065516 0.972924 -0.221645
vn 0.000157 0.974972 -0.222329
vn -0.947010 -0.125500 -0.295672
vn -0.918242 0.157787 -0.363228
vn -0.959894 -0.143587 -0.240804
vn -0.971700 0.054646 -0.229810
vn 0.000000 -1.000000 -0.000000
vn 0.000000 -1.000000 -0.000000
vn 0.970801 0.077706 -0.226951
vn 0.959735 -0.146487 -0.239687
vn 0.945027 -0.141326 -0.294874
vn 0.918242 0.157788 -0.363228
vn -0.151090 0.408610 -0.900117
vn -0.163779 0.142636 -0.976131
vn -0.084083 0.994965 0.054532
vn -0.066633 0.972757 -0.222045
vn -0.095351 0.936146 0.338436
vn -0.153336 0.039508 0.987384
vn -0.147563 0.096145 0.984368
vn -0.168369 0.006250 0.985704
vn -0.182071 0.047455 0.982140
vn 0.000000 -1.000000 -0.000000
vn 0.000000 -1.000000 0.000000
vn 0.000000 -1.000000 -0.000000
vn -0.171835 -0.107326 -0.979262
vn -0.178802 0.130746 -0.975159
s 1
f 29/43/1 12/20/2 4/4/3 28/42/4
s 2
f 28/42/5 4/4/6 17/27/7 27/41/8
s 3
f 26/40/9 6/6/10 9/15/11 25/39/12
s 4
f 32/47/13 22/35/14 2/10/15 31/46/16
s 5
f 12/20/17 24/38/18 17/28/19 4/4/20
s 6
f 19/31/21 11/19/22 3/3/23 18/29/24
s 3
f 34/49/25 25/39/12 9/15/11 13/21/26
s 6
f 20/32/27 15/25/28 11/19/22 19/31/21
s 1
f 30/44/29 16/26/30 12/20/2 29/43/1
s 5
f 16/26/31 23/37/32 24/38/18 12/20/17
s 3
f 34/49/25 13/21/26 8/8/33 33/48/34
s 6
f 21/33/35 1/1/36 15/25/28 20/32/27
s 1
f 31/45/37 2/2/38 16/26/30 30/44/29
s 5
f 2/2/39 22/36/40 23/37/32 16/26/31
s 2
f 27/41/8 17/27/7 6/6/41 26/40/42
s 6
f 10/17/43 19/31/21 18/29/24 5/14/44
f 14/23/45 20/32/27 19/31/21 10/17/43
f 7/13/46 21/33/35 20/32/27 14/23/45
s 4
f 33/48/47 8/8/48 22/35/14 32/47/13
s 5
f 23/37/32 22/36/40 8/11/49 13/22/50
f 24/38/18 23/37/32 13/22/50 9/16/51
f 17/28/19 24/38/18 9/16/51 6/12/52
s 3
f 5/5/53 26/40/9 25/39/12 10/18/54
s 2
f 18/30/55 27/41/8 26/40/42 5/5/56
f 3/3/57 28/42/5 27/41/8 18/30/55
s 1
f 11/19/58 29/43/1 28/42/4 3/3/59
f 15/25/60 30/44/29 29/43/1 11/19/58
f 1/1/61 31/45/37 30/44/29 15/25/60
s 4
f 21/34/62 32/47/13 31/46/16 1/9/63
f 7/7/64 33/48/47 32/47/13 21/34/62
s 3
f 14/24/65 34/49/25 33/48/34 7/7/66
f 10/18/54 25/39/12 34/49/25 14/24/65
